<svg width="286" height="50" viewBox="0 0 286 50" fill="none" xmlns="http://www.w3.org/2000/svg">
<g clip-path="url(#clip0_17_38034)">
<path d="M30.5264 0.0440331H33.7405V6.57393H30.5264V0.0440331ZM39.0974 0.0440331H42.3115V6.57393H39.0974V0.0440331ZM21.9554 0.0440331H25.1695V6.57393H21.9554V0.0440331ZM13.3844 0.0440331H16.5985V6.57393H13.3844V0.0440331ZM2.77786 19.2034H9.31329V22.4143H2.77786V19.2034ZM2.77786 10.641H9.31329V13.8519H2.77786V10.641ZM2.77786 27.7658H9.31329V30.9767H2.77786V27.7658ZM2.77786 36.3282H9.31329V39.5392H2.77786V36.3282ZM21.9554 43.6062H25.1695V50.1351H21.9554V43.6062ZM13.3844 43.6062H16.5985V50.1351H13.3844V43.6062ZM30.5264 43.6062H33.7405V50.1351H30.5264V43.6062ZM39.0974 43.6062H42.3115V50.1351H39.0974V43.6062ZM46.3826 27.7658H52.918V30.9767H46.3826V27.7658ZM46.3826 36.3282H52.918V39.5392H46.3826V36.3282ZM46.3826 19.2034H52.918V22.4143H46.3826V19.2034ZM46.3826 10.641H52.918V13.8519H46.3826V10.641ZM17.6143 35.3895H38.0816V14.7891H17.6143V35.3895ZM34.1682 30.637H31.8201V23.1073H34.1682V30.637ZM32.9942 19.5422C33.743 19.5422 34.3085 20.1101 34.313 20.8651C34.3195 21.0353 34.2917 21.205 34.2311 21.3641C34.1705 21.5232 34.0784 21.6686 33.9604 21.7913C33.7109 22.0495 33.3573 22.1916 32.9651 22.1916C32.2339 22.1916 31.6609 21.6127 31.6609 20.8742C31.6589 20.6987 31.6921 20.5246 31.7584 20.3621C31.8247 20.1996 31.9228 20.052 32.047 19.928C32.1712 19.8039 32.319 19.7058 32.4816 19.6396C32.6443 19.5733 32.8185 19.5402 32.9942 19.5422ZM24.4132 19.8254H26.7012L30.3946 30.6365H27.9123L26.871 27.5742H24.1893L23.177 30.6365H20.7358L24.4132 19.8254Z" fill="#A7C7E7"/>
<path d="M25.5326 23.4251L25.5261 23.4056L24.8109 25.5171H26.2454L25.5326 23.4251Z" fill="#A7C7E7"/>
<path d="M9.32631 6.46635V43.7128H46.3696V6.46635H9.32631ZM41.3137 37.0043C41.3137 37.4325 41.1434 37.8432 40.8403 38.146C40.5372 38.4488 40.1261 38.619 39.6974 38.619H15.998C15.5693 38.619 15.1582 38.4488 14.8551 38.146C14.5519 37.8432 14.3816 37.4325 14.3816 37.0043V13.1749C14.3816 12.7466 14.5519 12.3359 14.8551 12.0331C15.1582 11.7303 15.5693 11.5602 15.998 11.5602H39.6979C40.1266 11.5602 40.5377 11.7303 40.8408 12.0331C41.1439 12.3359 41.3142 12.7466 41.3142 13.1749L41.3137 37.0043Z" fill="#A7C7E7"/>
<path d="M70.6024 32.4633C72.8597 32.4633 74.4274 32.038 75.3056 31.1874C76.1872 30.3368 76.628 29.2943 76.628 28.06C76.628 26.7391 76.2222 25.81 75.4108 25.273C74.5994 24.7359 73.2187 24.2288 71.2686 23.7518C69.8728 23.4082 68.7809 23.0446 67.9929 22.661C67.2048 22.2774 66.8108 21.6369 66.8108 20.7396C66.8108 20.0324 67.133 19.4553 67.7775 19.0083C68.4253 18.5579 69.3469 18.3327 70.5423 18.3327C71.7277 18.3327 72.6427 18.5929 73.2871 19.1133C73.9316 19.6371 74.2538 20.7546 74.2538 22.4658H76.6129C76.6129 20.5077 76.1738 19.0583 75.2956 18.1176C74.4174 17.1802 72.8413 16.7115 70.5674 16.7115C68.3401 16.7115 66.7774 17.1285 65.8792 17.9625C64.9809 18.7998 64.5318 19.8089 64.5318 20.9897C64.5318 22.2874 64.9409 23.2247 65.759 23.8018C66.5771 24.3756 67.9344 24.896 69.8311 25.363C71.2502 25.7033 72.3505 26.0585 73.1318 26.4288C73.9099 26.8024 74.2989 27.4529 74.2989 28.3803C74.2989 29.1409 73.98 29.7413 73.3422 30.1816C72.7044 30.622 71.7828 30.8421 70.5774 30.8421C69.3719 30.8421 68.4553 30.5769 67.8276 30.0465C67.1965 29.5195 66.8809 28.3736 66.8809 26.609H64.5168C64.5168 28.6805 64.9542 30.175 65.8291 31.0923C66.7006 32.0063 68.2917 32.4633 70.6024 32.4633Z" fill="#3C3C3C"/>
<path d="M78.9871 18.7381V32.3733H81.3262V21.0048L80.8203 18.7381H78.9871ZM86.6254 24.1921V32.3733H88.9545V24.032C88.9545 22.4809 88.6774 21.1899 88.1231 20.1591C87.5721 19.125 86.5203 18.608 84.9675 18.608C83.6018 18.608 82.4448 19.1133 81.4965 20.1241C80.5448 21.1315 80.069 22.2991 80.069 23.6267L81.3061 24.2472C81.3061 22.9896 81.575 22.0072 82.1126 21.3C82.6502 20.5961 83.3514 20.2442 84.2162 20.2442C85.0777 20.2442 85.6955 20.5678 86.0695 21.2149C86.4401 21.8654 86.6254 22.8578 86.6254 24.1921ZM94.2287 24.1921V32.3733H96.5578V24.032C96.5578 22.4809 96.284 21.1899 95.7364 20.1591C95.1921 19.125 94.1486 18.608 92.6059 18.608C91.2302 18.608 90.0681 19.1167 89.1198 20.1341C88.1715 21.1515 87.6973 22.3157 87.6973 23.6267L88.9395 24.2472C88.9395 22.9896 89.2083 22.0072 89.7459 21.3C90.2835 20.5961 90.9831 20.2442 91.8446 20.2442C92.7128 20.2442 93.3272 20.5678 93.6878 21.2149C94.0484 21.8654 94.2287 22.8578 94.2287 24.1921Z" fill="#3C3C3C"/>
<path d="M103.445 32.4984C104.113 32.4984 104.71 32.44 105.238 32.3232C105.762 32.2032 106.216 32.0497 106.6 31.8629C106.984 31.6728 107.3 31.4709 107.547 31.2574C107.794 31.044 107.966 30.8405 108.063 30.647L108.263 32.3733H110.207V23.6968C110.207 22.4692 109.986 21.4834 109.546 20.7396C109.105 19.9957 108.462 19.4536 107.617 19.1133C106.772 18.7764 105.742 18.608 104.527 18.608C103.805 18.608 103.131 18.683 102.503 18.8331C101.872 18.9832 101.309 19.2201 100.815 19.5437C100.318 19.8639 99.902 20.2859 99.5681 20.8096C99.2342 21.33 99.0054 21.9655 98.8819 22.716L101.166 23.3265C101.279 22.5693 101.488 21.9621 101.792 21.5051C102.096 21.0481 102.481 20.7162 102.949 20.5094C103.42 20.3026 103.951 20.1991 104.542 20.1991C105.223 20.1991 105.814 20.3142 106.315 20.5444C106.812 20.7746 107.196 21.1365 107.467 21.6302C107.734 22.1239 107.868 22.7744 107.868 23.5817V24.3523H103.41C102.695 24.3523 102.051 24.4173 101.476 24.5474C100.899 24.6775 100.41 24.8943 100.009 25.1979C99.6048 25.5015 99.2943 25.9118 99.0772 26.4288C98.8635 26.9459 98.7567 27.5964 98.7567 28.3803C98.7567 29.1942 98.8668 29.8681 99.0872 30.4018C99.3043 30.9322 99.6232 31.3508 100.044 31.6577C100.461 31.9646 100.955 32.1815 101.526 32.3082C102.101 32.435 102.74 32.4984 103.445 32.4984ZM103.951 30.9672C103.56 30.9672 103.193 30.9272 102.849 30.8471C102.502 30.7671 102.198 30.632 101.937 30.4418C101.677 30.2484 101.475 29.9798 101.331 29.6362C101.191 29.2893 101.121 28.8406 101.121 28.2902C101.121 27.7531 101.193 27.3112 101.336 26.9642C101.483 26.6206 101.685 26.3538 101.942 26.1636C102.199 25.9768 102.502 25.8467 102.849 25.7733C103.193 25.6999 103.56 25.6632 103.951 25.6632H107.833V29.2209C107.702 29.5045 107.465 29.7797 107.121 30.0465C106.774 30.3167 106.335 30.5386 105.804 30.712C105.27 30.8822 104.652 30.9672 103.951 30.9672Z" fill="#3C3C3C"/>
<path d="M120.865 25.0878H123.189C123.189 22.8395 122.889 21.1999 122.288 20.1691C121.683 19.1384 120.606 18.623 119.057 18.623C117.551 18.623 116.352 19.0333 115.461 19.8539C114.569 20.6745 114.124 21.6669 114.124 22.8311L115.025 23.4866C115.025 22.6527 115.309 21.9038 115.877 21.2399C116.444 20.5761 117.224 20.2442 118.216 20.2442C119.084 20.2442 119.742 20.5828 120.189 21.2599C120.64 21.9405 120.865 23.2164 120.865 25.0878ZM112.706 18.7381V32.3733H115.035V21.37L114.539 18.7381H112.706Z" fill="#3C3C3C"/>
<path d="M131.589 32.5234C132.434 32.5234 133.24 32.4267 134.008 32.2332V30.657C133.477 30.8338 132.931 30.9222 132.37 30.9222C131.743 30.9222 131.255 30.7888 130.908 30.5219C130.564 30.2517 130.392 29.6996 130.392 28.8657V20.3693H134.905V18.7381H130.392V15.6507H128.053V18.7381H124.862V20.3693H128.053V29.4061C128.053 30.6003 128.39 31.4192 129.065 31.8629C129.742 32.3032 130.584 32.5234 131.589 32.5234Z" fill="#3C3C3C"/>
<path d="M141.737 16.8016L136.533 32.3733H138.962L140.334 28.06H146.52L147.878 32.3733H150.322L145.113 16.8016H141.737ZM146.114 26.4689H140.75L143.42 18.2077H143.445L146.114 26.4689Z" fill="#3C3C3C"/>
<path d="M161.036 30.1316L161.186 32.3733H163.35V14.3047H161.036V30.1316ZM156.713 32.4634C158.206 32.4634 159.466 32.0897 160.495 31.3425C161.523 30.5953 162.037 29.818 162.037 29.0108L161.036 27.7598C161.036 28.5571 160.688 29.271 159.994 29.9014C159.299 30.5286 158.468 30.8421 157.499 30.8421C156.471 30.8421 155.656 30.4685 155.055 29.7213C154.457 28.9741 154.158 27.5797 154.158 25.5382C154.158 23.4966 154.457 22.1022 155.055 21.355C155.656 20.6078 156.471 20.2342 157.499 20.2342C158.468 20.2342 159.299 20.5461 159.994 21.1699C160.688 21.7937 161.036 22.5009 161.036 23.2915L162.037 22.0756C162.037 21.2616 161.523 20.4794 160.495 19.7288C159.466 18.9816 158.206 18.608 156.713 18.608C155.077 18.608 153.851 19.1801 153.037 20.3242C152.218 21.4684 151.809 23.2031 151.809 25.5282C151.809 27.8499 152.218 29.5862 153.037 30.7371C153.851 31.8879 155.077 32.4634 156.713 32.4634Z" fill="#3C3C3C"/>
<path d="M165.839 18.7381V32.3733H168.178V21.0048L167.672 18.7381H165.839ZM173.477 24.1921V32.3733H175.801V24.032C175.801 22.4809 175.526 21.1899 174.975 20.1591C174.421 19.125 173.369 18.608 171.819 18.608C170.45 18.608 169.292 19.1133 168.343 20.1241C167.395 21.1315 166.921 22.2991 166.921 23.6267L168.153 24.2472C168.153 22.9896 168.422 22.0072 168.959 21.3C169.497 20.5961 170.2 20.2442 171.068 20.2442C171.93 20.2442 172.546 20.5678 172.916 21.2149C173.29 21.8654 173.477 22.8578 173.477 24.1921ZM181.081 24.1921V32.3733H183.405V24.032C183.405 22.4809 183.132 21.1899 182.588 20.1591C182.044 19.125 181 18.608 179.458 18.608C178.082 18.608 176.92 19.1167 175.972 20.1341C175.023 21.1515 174.549 22.3157 174.549 23.6267L175.791 24.2472C175.791 22.9896 176.06 22.0072 176.598 21.3C177.135 20.5961 177.835 20.2442 178.696 20.2442C179.565 20.2442 180.179 20.5678 180.54 21.2149C180.9 21.8654 181.081 22.8578 181.081 24.1921Z" fill="#3C3C3C"/>
<path d="M186.265 18.723V32.3733H188.604V18.723H186.265ZM188.604 14.9952H186.265V17.0568H188.604V14.9952Z" fill="#3C3C3C"/>
<path d="M197.174 32.4633C198.97 32.4633 200.338 32.1565 201.276 31.5427C202.211 30.9289 202.678 29.9932 202.678 28.7356C202.678 27.3712 202.209 26.4305 201.271 25.9134C200.329 25.393 199.164 24.9911 197.775 24.7075C196.599 24.4407 195.629 24.1605 194.865 23.8669C194.1 23.5767 193.718 23.0329 193.718 22.2357C193.718 21.5985 193.97 21.0915 194.474 20.7145C194.975 20.3376 195.745 20.1491 196.783 20.1491C197.858 20.1491 198.708 20.411 199.332 20.9347C199.96 21.4551 200.339 22.219 200.469 23.2264L202.528 22.5209C202.308 21.1265 201.715 20.1274 200.75 19.5236C199.785 18.9232 198.469 18.623 196.803 18.623C195.13 18.623 193.813 18.9315 192.851 19.5487C191.893 20.1658 191.414 21.0648 191.414 22.2457C191.414 23.5433 191.849 24.469 192.721 25.0228C193.592 25.5799 194.723 26.0085 196.112 26.3087C197.334 26.5756 198.349 26.8575 199.157 27.1544C199.962 27.4513 200.364 28.0317 200.364 28.8957C200.364 29.5028 200.102 29.9932 199.578 30.3668C199.05 30.7371 198.261 30.9222 197.209 30.9222C196.094 30.9222 195.209 30.6737 194.554 30.1766C193.896 29.6763 193.502 28.8506 193.372 27.6998L191.308 28.4053C191.549 29.9298 192.175 30.9872 193.187 31.5777C194.202 32.1681 195.531 32.4633 197.174 32.4633Z" fill="#3C3C3C"/>
<path d="M210.572 32.4633C212.369 32.4633 213.736 32.1565 214.674 31.5427C215.609 30.9289 216.077 29.9932 216.077 28.7356C216.077 27.3712 215.608 26.4305 214.669 25.9134C213.728 25.393 212.561 24.9911 211.168 24.7075C209.996 24.4407 209.028 24.1605 208.263 23.8669C207.498 23.5767 207.116 23.0329 207.116 22.2357C207.116 21.5985 207.368 21.0915 207.872 20.7145C208.373 20.3376 209.143 20.1491 210.181 20.1491C211.257 20.1491 212.106 20.411 212.731 20.9347C213.359 21.4551 213.738 22.219 213.868 23.2264L215.926 22.5209C215.706 21.1265 215.113 20.1274 214.148 19.5236C213.183 18.9232 211.868 18.623 210.201 18.623C208.529 18.623 207.211 18.9315 206.25 19.5487C205.291 20.1658 204.812 21.0648 204.812 22.2457C204.812 23.5433 205.248 24.469 206.119 25.0228C206.991 25.5799 208.121 26.0085 209.51 26.3087C210.732 26.5756 211.746 26.8575 212.551 27.1544C213.359 27.4513 213.763 28.0317 213.763 28.8957C213.763 29.5028 213.499 29.9932 212.971 30.3668C212.447 30.7371 211.659 30.9222 210.607 30.9222C209.492 30.9222 208.607 30.6737 207.953 30.1766C207.295 29.6763 206.901 28.8506 206.77 27.6998L204.707 28.4053C204.944 29.9298 205.57 30.9872 206.585 31.5777C207.6 32.1681 208.929 32.4633 210.572 32.4633Z" fill="#3C3C3C"/>
<path d="M218.691 18.723V32.3733H221.03V18.723H218.691ZM221.03 14.9952H218.691V17.0568H221.03V14.9952Z" fill="#3C3C3C"/>
<path d="M229.58 32.4633C231.624 32.4633 233.135 31.8979 234.113 30.7671C235.092 29.6362 235.581 27.8849 235.581 25.5131C235.581 23.1447 235.092 21.3984 234.113 20.2742C233.135 19.15 231.624 18.5879 229.58 18.5879C227.543 18.5879 226.034 19.15 225.052 20.2742C224.071 21.3984 223.58 23.1447 223.58 25.5131C223.58 27.8849 224.071 29.6362 225.052 30.7671C226.034 31.8979 227.543 32.4633 229.58 32.4633ZM229.58 30.8672C228.512 30.8672 227.632 30.4919 226.941 29.7413C226.25 28.9941 225.904 27.5897 225.904 25.5281C225.904 23.4633 226.25 22.0589 226.941 21.315C227.632 20.5711 228.512 20.1992 229.58 20.1992C230.649 20.1992 231.529 20.5711 232.22 21.315C232.911 22.0589 233.257 23.4633 233.257 25.5281C233.257 27.5897 232.911 28.9941 232.22 29.7413C231.529 30.4919 230.649 30.8672 229.58 30.8672Z" fill="#3C3C3C"/>
<path d="M237.84 18.7381V32.3733H240.169V21.37L239.673 18.7381H237.84ZM246.4 24.5824V32.3733H248.724V24.5724C248.724 22.7144 248.397 21.2533 247.742 20.1891C247.084 19.1283 245.964 18.5979 244.381 18.5979C242.792 18.5979 241.493 19.0933 240.484 20.0841C239.473 21.0715 238.967 22.1256 238.967 23.2464L240.099 23.962C240.099 22.8878 240.433 21.9972 241.1 21.29C241.768 20.5861 242.581 20.2342 243.54 20.2342C244.501 20.2342 245.218 20.5628 245.689 21.2199C246.163 21.8804 246.4 23.0013 246.4 24.5824Z" fill="#3C3C3C"/>
<path d="M256.858 32.4633C258.655 32.4633 260.022 32.1565 260.96 31.5427C261.899 30.9289 262.368 29.9932 262.368 28.7356C262.368 27.3712 261.897 26.4305 260.955 25.9134C260.014 25.393 258.848 24.9911 257.459 24.7075C256.284 24.4407 255.314 24.1605 254.549 23.8669C253.784 23.5767 253.402 23.0329 253.402 22.2357C253.402 21.5985 253.654 21.0915 254.158 20.7145C254.663 20.3376 255.432 20.1491 256.467 20.1491C257.543 20.1491 258.394 20.411 259.022 20.9347C259.646 21.4551 260.024 22.219 260.154 23.2264L262.217 22.5209C261.994 21.1265 261.399 20.1274 260.434 19.5236C259.473 18.9232 258.159 18.623 256.492 18.623C254.816 18.623 253.499 18.9315 252.54 19.5487C251.579 20.1658 251.098 21.0648 251.098 22.2457C251.098 23.5433 251.534 24.469 252.405 25.0228C253.277 25.5799 254.409 26.0085 255.801 26.3087C257.02 26.5756 258.033 26.8575 258.842 27.1544C259.646 27.4513 260.049 28.0317 260.049 28.8957C260.049 29.5028 259.786 29.9932 259.262 30.3668C258.735 30.7371 257.945 30.9222 256.893 30.9222C255.781 30.9222 254.896 30.6737 254.238 30.1766C253.581 29.6763 253.187 28.8506 253.056 27.6998L250.998 28.4053C251.235 29.9298 251.859 30.9872 252.871 31.5777C253.886 32.1681 255.215 32.4633 256.858 32.4633Z" fill="#3C3C3C"/>
<path d="M269.43 16.8016L264.221 32.3733H266.65L268.023 28.06H274.208L275.566 32.3733H278.01L272.801 16.8016H269.43ZM273.808 26.4689H268.438L271.108 18.2077H271.133L273.808 26.4689Z" fill="#3C3C3C"/>
<path d="M280.374 16.8366V32.3733H282.723V16.8366H280.374Z" fill="#3C3C3C"/>
</g>
<defs>
<clipPath id="clip0_17_38034">
<rect width="286" height="50" fill="white"/>
</clipPath>
</defs>
</svg>
